<?xml version="1.0" encoding="UTF-8" standalone="no"?><!DOCTYPE svg PUBLIC "-//W3C//DTD SVG 1.1//EN" "http://www.w3.org/Graphics/SVG/1.1/DTD/svg11.dtd"><svg width="100%" height="100%" viewBox="0 0 1127 309" version="1.1" xmlns="http://www.w3.org/2000/svg" xmlns:xlink="http://www.w3.org/1999/xlink" xml:space="preserve" xmlns:serif="http://www.serif.com/" style="fill-rule:evenodd;clip-rule:evenodd;stroke-linejoin:round;stroke-miterlimit:1.41421;"><rect id="Artboard2" x="0" y="0" width="1126.33" height="308.09" style="fill:none;"/><clipPath id="_clip1"><rect x="0" y="0" width="1126.33" height="308.09"/></clipPath><g clip-path="url(#_clip1)"><g><g><path d="M977.828,299.952l-93.375,-299.952l124.5,0l-31.125,299.952Z" style="fill:#8c8c8c;fill-opacity:0.494118;"/><path d="M194.908,158.192l-93.375,-158.192l124.5,0l-31.125,158.192Z" style="fill:#8c8c8c;fill-opacity:0.494118;"/><path d="M897.104,158.192l-93.375,-158.192l124.5,0l-31.125,158.192Z" style="fill:#8c8c8c;fill-opacity:0.494118;"/><path d="M369.952,166.409l-93.374,-158.193l124.499,0l-31.125,158.193Z" style="fill:#8c8c8c;fill-opacity:0.494118;"/><path d="M885.697,229.236l-31.125,-229.236l124.5,0l-93.375,229.236Z" style="fill:#8c8c8c;fill-opacity:0.494118;"/><path d="M934.267,251.813l-31.125,-251.813l124.5,0l-93.375,251.813Z" style="fill:#8c8c8c;fill-opacity:0.494118;"/><path d="M677.772,135.836l-31.125,-135.836l124.5,0l-93.375,135.836Z" style="fill:#8c8c8c;fill-opacity:0.494118;"/><path d="M91.285,110.88l-31.125,-110.88l124.5,0l-93.375,110.88Z" style="fill:#8c8c8c;fill-opacity:0.494118;"/><path d="M369.952,135.836l-31.125,-135.836l124.5,0l-93.375,135.836Z" style="fill:#8c8c8c;fill-opacity:0.494118;"/><path d="M261.636,135.836l-31.125,-135.836l124.499,0l-93.374,135.836Z" style="fill:#8c8c8c;fill-opacity:0.494118;"/><path d="M617.375,229.236l-111.925,-229.236l124.5,0l-12.575,229.236Z" style="fill:#8c8c8c;fill-opacity:0.494118;"/><path d="M450.752,170.144l-111.925,-170.144l124.5,0l-12.575,170.144Z" style="fill:#8c8c8c;fill-opacity:0.494118;"/><path d="M862.55,207.912l-124.5,-207.912l124.5,0l0,207.912Z" style="fill:#8c8c8c;fill-opacity:0.494118;"/><path d="M478.053,207.912l-31.125,-207.912l124.5,0l-93.375,207.912Z" style="fill:#8c8c8c;fill-opacity:0.494118;"/><path d="M232.483,183.122l-31.125,-183.122l124.499,0l-93.374,183.122Z" style="fill:#8c8c8c;fill-opacity:0.494118;"/><path d="M727.571,271.672l-1.976,-271.672l124.5,0l-122.524,271.672Z" style="fill:#8c8c8c;fill-opacity:0.494118;"/><path d="M573.403,207.912l-1.975,-207.912l124.499,0l-122.524,207.912Z" style="fill:#8c8c8c;fill-opacity:0.494118;"/></g><g><path d="M57.516,299.952l107.811,-299.952l-143.748,0l35.937,299.952Z" style="fill:#8c8c8c;fill-opacity:0.192157;"/><path d="M961.484,158.192l107.811,-158.192l-143.748,0l35.937,158.192Z" style="fill:#8c8c8c;fill-opacity:0.192157;"/><path d="M150.721,158.192l107.811,-158.192l-143.748,0l35.937,158.192Z" style="fill:#8c8c8c;fill-opacity:0.192157;"/><path d="M759.376,166.409l107.811,-158.193l-143.749,0l35.938,158.193Z" style="fill:#8c8c8c;fill-opacity:0.192157;"/><path d="M163.891,229.236l35.937,-229.236l-143.749,0l107.812,229.236Z" style="fill:#8c8c8c;fill-opacity:0.192157;"/><path d="M107.812,251.813l35.937,-251.813l-143.749,0l107.812,251.813Z" style="fill:#8c8c8c;fill-opacity:0.192157;"/><path d="M403.963,135.836l35.937,-135.836l-143.748,0l107.811,135.836Z" style="fill:#8c8c8c;fill-opacity:0.192157;"/><path d="M1081.13,110.88l35.937,-110.88l-143.749,0l107.812,110.88Z" style="fill:#8c8c8c;fill-opacity:0.192157;"/><path d="M759.376,135.836l35.937,-135.836l-143.749,0l107.812,135.836Z" style="fill:#8c8c8c;fill-opacity:0.192157;"/><path d="M884.44,135.836l35.937,-135.836l-143.749,0l107.812,135.836Z" style="fill:#8c8c8c;fill-opacity:0.192157;"/><path d="M473.699,229.236l129.23,-229.236l-143.749,0l14.519,229.236Z" style="fill:#8c8c8c;fill-opacity:0.192157;"/><path d="M666.083,170.144l129.23,-170.144l-143.749,0l14.519,170.144Z" style="fill:#8c8c8c;fill-opacity:0.192157;"/><path d="M190.617,207.912l143.749,-207.912l-143.749,0l0,207.912Z" style="fill:#8c8c8c;fill-opacity:0.192157;"/><path d="M634.562,207.912l35.937,-207.912l-143.749,0l107.812,207.912Z" style="fill:#8c8c8c;fill-opacity:0.192157;"/><path d="M918.1,183.122l35.937,-183.122l-143.749,0l107.812,183.122Z" style="fill:#8c8c8c;fill-opacity:0.192157;"/><path d="M346.465,271.672l2.282,-271.672l-143.749,0l141.467,271.672Z" style="fill:#8c8c8c;fill-opacity:0.192157;"/><path d="M524.469,207.912l2.281,-207.912l-143.749,0l141.468,207.912Z" style="fill:#8c8c8c;fill-opacity:0.192157;"/></g><g><path d="M967.456,165.173l-50.632,-165.128l67.51,0l-16.878,165.128Z" style="fill:#1a1a1a;fill-opacity:0.501961;"/><path d="M492.911,165.173l-50.633,-165.128l67.51,0l-16.877,165.128Z" style="fill:#1a1a1a;fill-opacity:0.501961;"/><path d="M542.917,87.133l-50.632,-87.088l67.51,0l-16.878,87.088Z" style="fill:#1a1a1a;fill-opacity:0.501961;"/><path d="M923.684,87.133l-50.633,-87.088l67.51,0l-16.877,87.088Z" style="fill:#1a1a1a;fill-opacity:0.501961;"/><path d="M401.708,87.133l-50.633,-87.088l67.51,0l-16.877,87.088Z" style="fill:#1a1a1a;fill-opacity:0.501961;"/><path d="M917.498,126.243l-16.877,-126.198l67.51,0l-50.633,126.198Z" style="fill:#1a1a1a;fill-opacity:0.501961;"/><path d="M395.522,126.243l-16.877,-126.198l67.51,0l-50.633,126.198Z" style="fill:#1a1a1a;fill-opacity:0.501961;"/><path d="M943.835,138.672l-16.877,-138.627l67.51,0l-50.633,138.627Z" style="fill:#1a1a1a;fill-opacity:0.501961;"/><path d="M469.29,138.672l-16.878,-138.627l67.51,0l-50.632,138.627Z" style="fill:#1a1a1a;fill-opacity:0.501961;"/><path d="M804.751,74.825l-16.878,-74.78l67.51,0l-50.632,74.78Z" style="fill:#1a1a1a;fill-opacity:0.501961;"/><path d="M282.775,74.825l-16.878,-74.78l67.51,0l-50.632,74.78Z" style="fill:#1a1a1a;fill-opacity:0.501961;"/><path d="M804.751,74.825l-16.878,-74.78l67.51,0l-50.632,74.78Z" style="fill:#1a1a1a;fill-opacity:0.501961;"/><path d="M282.775,74.825l-16.878,-74.78l67.51,0l-50.632,74.78Z" style="fill:#1a1a1a;fill-opacity:0.501961;"/><path d="M534.158,61.087l-16.878,-61.042l67.51,0l-50.632,61.042Z" style="fill:#1a1a1a;fill-opacity:0.501961;"/><path d="M637.835,74.825l-16.877,-74.78l67.51,0l-50.633,74.78Z" style="fill:#1a1a1a;fill-opacity:0.501961;"/><path d="M637.835,74.825l-16.877,-74.78l67.51,0l-50.633,74.78Z" style="fill:#1a1a1a;fill-opacity:0.501961;"/><path d="M579.1,74.825l-16.877,-74.78l67.51,0l-50.633,74.78Z" style="fill:#1a1a1a;fill-opacity:0.501961;"/><path d="M772,126.243l-60.691,-126.198l67.51,0l-6.819,126.198Z" style="fill:#1a1a1a;fill-opacity:0.501961;"/><path d="M626.743,126.243l-60.691,-126.198l67.51,0l-6.819,126.198Z" style="fill:#1a1a1a;fill-opacity:0.501961;"/><path d="M250.024,126.243l-60.691,-126.198l67.51,0l-6.819,126.198Z" style="fill:#1a1a1a;fill-opacity:0.501961;"/><path d="M681.649,93.712l-60.691,-93.667l67.51,0l-6.819,93.667Z" style="fill:#1a1a1a;fill-opacity:0.501961;"/><path d="M681.649,93.712l-60.691,-93.667l67.51,0l-6.819,93.667Z" style="fill:#1a1a1a;fill-opacity:0.501961;"/><path d="M1028.22,187.379l-67.51,-187.334l67.51,0l0,187.334Z" style="fill:#1a1a1a;fill-opacity:0.501961;"/><path d="M904.947,114.504l-67.51,-114.459l67.51,0l0,114.459Z" style="fill:#1a1a1a;fill-opacity:0.501961;"/><path d="M382.971,114.504l-67.511,-114.459l67.511,0l0,114.459Z" style="fill:#1a1a1a;fill-opacity:0.501961;"/><path d="M696.453,114.504l-16.878,-114.459l67.51,0l-50.632,114.459Z" style="fill:#1a1a1a;fill-opacity:0.501961;"/><path d="M174.477,114.504l-16.878,-114.459l67.51,0l-50.632,114.459Z" style="fill:#1a1a1a;fill-opacity:0.501961;"/><path d="M696.453,114.504l-16.878,-114.459l67.51,0l-50.632,114.459Z" style="fill:#1a1a1a;fill-opacity:0.501961;"/><path d="M174.477,114.504l-16.878,-114.459l67.51,0l-50.632,114.459Z" style="fill:#1a1a1a;fill-opacity:0.501961;"/><path d="M563.292,100.857l-16.877,-100.812l67.51,0l-50.633,100.812Z" style="fill:#1a1a1a;fill-opacity:0.501961;"/><path d="M831.754,149.605l-1.071,-149.56l67.51,0l-66.439,149.56Z" style="fill:#1a1a1a;fill-opacity:0.501961;"/><path d="M309.778,149.605l-1.071,-149.56l67.51,0l-66.439,149.56Z" style="fill:#1a1a1a;fill-opacity:0.501961;"/><path d="M748.157,114.504l-1.072,-114.459l67.51,0l-66.438,114.459Z" style="fill:#1a1a1a;fill-opacity:0.501961;"/><path d="M602.9,114.504l-1.072,-114.459l67.51,0l-66.438,114.459Z" style="fill:#1a1a1a;fill-opacity:0.501961;"/><path d="M226.181,114.504l-1.072,-114.459l67.51,0l-66.438,114.459Z" style="fill:#1a1a1a;fill-opacity:0.501961;"/><path d="M748.157,114.504l-1.072,-114.459l67.51,0l-66.438,114.459Z" style="fill:#1a1a1a;fill-opacity:0.501961;"/><path d="M602.9,114.504l-1.072,-114.459l67.51,0l-66.438,114.459Z" style="fill:#1a1a1a;fill-opacity:0.501961;"/><path d="M226.181,114.504l-1.072,-114.459l67.51,0l-66.438,114.459Z" style="fill:#1a1a1a;fill-opacity:0.501961;"/><path d="M974.415,191.378l-50.633,-191.378l67.51,0l-16.877,191.378Z" style="fill:#1a1a1a;fill-opacity:0.501961;"/><path d="M452.438,191.378l-50.632,-191.378l67.51,0l-16.878,191.378Z" style="fill:#1a1a1a;fill-opacity:0.501961;"/><path d="M553.987,152.777l-50.633,-152.732l67.511,0l-16.878,152.732Z" style="fill:#1a1a1a;fill-opacity:0.501961;"/><path d="M917.804,100.932l-50.633,-100.932l67.51,0l-16.877,100.932Z" style="fill:#1a1a1a;fill-opacity:0.501961;"/><path d="M395.828,100.932l-50.633,-100.932l67.51,0l-16.877,100.932Z" style="fill:#1a1a1a;fill-opacity:0.501961;"/><path d="M889.06,146.26l-16.877,-146.26l67.51,0l-50.633,146.26Z" style="fill:#1a1a1a;fill-opacity:0.501961;"/><path d="M367.084,146.26l-16.877,-146.26l67.51,0l-50.633,146.26Z" style="fill:#1a1a1a;fill-opacity:0.501961;"/><path d="M1005.44,160.71l-16.877,-160.665l67.51,0l-50.633,160.665Z" style="fill:#1a1a1a;fill-opacity:0.501961;"/><path d="M786.804,102.491l-16.878,-102.491l67.511,0l-50.633,102.491Z" style="fill:#1a1a1a;fill-opacity:0.501961;"/><path d="M264.828,102.491l-16.878,-102.491l67.51,0l-50.632,102.491Z" style="fill:#1a1a1a;fill-opacity:0.501961;"/><path d="M786.804,102.491l-16.878,-102.491l67.511,0l-50.633,102.491Z" style="fill:#1a1a1a;fill-opacity:0.501961;"/><path d="M264.828,102.491l-16.878,-102.491l67.51,0l-50.632,102.491Z" style="fill:#1a1a1a;fill-opacity:0.501961;"/><path d="M519.126,107.098l-16.878,-107.053l67.51,0l-50.632,107.053Z" style="fill:#1a1a1a;fill-opacity:0.501961;"/><path d="M646.812,119.459l-16.877,-119.414l67.51,0l-50.633,119.414Z" style="fill:#1a1a1a;fill-opacity:0.501961;"/><path d="M646.812,119.459l-16.877,-119.414l67.51,0l-50.633,119.414Z" style="fill:#1a1a1a;fill-opacity:0.501961;"/><path d="M767.895,172.964l-60.691,-172.964l67.51,0l-6.819,172.964Z" style="fill:#1a1a1a;fill-opacity:0.501961;"/><path d="M245.919,172.964l-60.691,-172.964l67.51,0l-6.819,172.964Z" style="fill:#1a1a1a;fill-opacity:0.501961;"/><path d="M674.153,149.574l-60.691,-149.574l67.51,0l-6.819,149.574Z" style="fill:#1a1a1a;fill-opacity:0.501961;"/><path d="M951.936,217.159l67.511,-217.114l-67.511,0l0,217.114Z" style="fill:#1a1a1a;fill-opacity:0.501961;"/><path d="M898.919,156.875l-67.51,-156.875l67.51,0l0,156.875Z" style="fill:#1a1a1a;fill-opacity:0.501961;"/><path d="M376.943,156.875l-67.51,-156.875l67.51,0l0,156.875Z" style="fill:#1a1a1a;fill-opacity:0.501961;"/><path d="M678.549,156.875l-16.877,-156.875l67.51,0l-50.633,156.875Z" style="fill:#1a1a1a;fill-opacity:0.501961;"/><path d="M553.07,136.128l-16.878,-136.128l67.51,0l-50.632,136.128Z" style="fill:#1a1a1a;fill-opacity:0.501961;"/><path d="M825.262,191.857l-1.072,-191.857l67.51,0l-66.438,191.857Z" style="fill:#1a1a1a;fill-opacity:0.501961;"/><path d="M732.889,156.92l-1.072,-156.875l67.511,0l-66.439,156.875Z" style="fill:#1a1a1a;fill-opacity:0.501961;"/><path d="M210.913,156.92l-1.072,-156.875l67.51,0l-66.438,156.875Z" style="fill:#1a1a1a;fill-opacity:0.501961;"/><path d="M378.547,106.782l-50.633,-106.737l67.51,0l-16.877,106.737Z" style="fill:#1a1a1a;fill-opacity:0.501961;"/><path d="M275.305,66.166l50.632,-66.121l-67.51,0l16.878,66.121Z" style="fill:#1a1a1a;fill-opacity:0.501961;"/><path d="M344.954,82.227l-50.633,-82.182l67.51,0l-16.877,82.182Z" style="fill:#1a1a1a;fill-opacity:0.501961;"/><path d="M303.886,66.166l50.633,-66.121l-67.51,0l16.877,66.121Z" style="fill:#1a1a1a;fill-opacity:0.501961;"/><path d="M482.735,106.782l-50.633,-106.737l67.511,0l-16.878,106.737Z" style="fill:#1a1a1a;fill-opacity:0.501961;"/><path d="M218.547,66.166l50.632,-66.121l-67.51,0l16.878,66.121Z" style="fill:#1a1a1a;fill-opacity:0.501961;"/><path d="M139.234,49.06l50.633,-49.015l-67.51,0l16.877,49.015Z" style="fill:#1a1a1a;fill-opacity:0.501961;"/><path d="M510.742,92.373l-50.632,-92.328l67.51,0l-16.878,92.328Z" style="fill:#1a1a1a;fill-opacity:0.501961;"/><path d="M182.932,66.166l50.633,-66.121l-67.51,0l16.877,66.121Z" style="fill:#1a1a1a;fill-opacity:0.501961;"/><path d="M103.62,49.06l50.632,-49.015l-67.51,0l16.878,49.015Z" style="fill:#1a1a1a;fill-opacity:0.501961;"/><path d="M407.787,106.782l-50.632,-106.737l67.51,0l-16.878,106.737Z" style="fill:#1a1a1a;fill-opacity:0.501961;"/><path d="M241.55,66.166l50.632,-66.121l-67.51,0l16.878,66.121Z" style="fill:#1a1a1a;fill-opacity:0.501961;"/><path d="M167.124,49.157l16.877,-49.112l-67.51,0l50.633,49.112Z" style="fill:#1a1a1a;fill-opacity:0.501961;"/><path d="M82.359,36.451l16.877,-36.406l-67.51,0l50.633,36.406Z" style="fill:#1a1a1a;fill-opacity:0.501961;"/></g></g></g></svg>